# xmcd
# 
# Track frame offsets:
#	150
#	15439
#	37310
#	49602
#	70073
#	85414
#	97950
#	112698
#	124417
#	141699
#	158887
#	173093
#
# Disc length: 2598 seconds
#
# Revision: 1
# Processed by: cddbd v1.4PL0 Copyright (c) Steve Scherf et al.
# Submitted via: Audio-CD-Archiv 2.10.446
#
DISCID=9f0a240c
DTITLE=Neil Diamond - Diamonds CD2
DYEAR=1900
DGENRE=blues
TTITLE0=Sweet Caroline
TTITLE1=Mr. Bojangles
TTITLE2=Ain't No Way
TTITLE3=Holly Holy
TTITLE4=Cherry Cherry
TTITLE5=Kentucky Woman
TTITLE6=Song Sung Blue
TTITLE7=High Rolling Man
TTITLE8=Play Me
TTITLE9=Gitchy Goomy
TTITLE10=Walk On Water
TTITLE11=Morningside
EXTD=
EXTT0=
EXTT1=
EXTT2=
EXTT3=
EXTT4=
EXTT5=
EXTT6=
EXTT7=
EXTT8=
EXTT9=
EXTT10=
EXTT11=
PLAYORDER=
